<?xml version="1.0" encoding="UTF-8"?>
<svg id="Layer_2" data-name="Layer 2" xmlns="http://www.w3.org/2000/svg" viewBox="0 0 23.28 55.52">
  <defs>
    <style>
      .cls-1 {
        stroke-width: 0px;
      }
    </style>
  </defs>
  <g id="note">
    <path class="cls-1" d="m22.7.09L18.71,0c-.28,0-.52.13-.56.31l-2.74,14.42c-1.78.4-4.45.65-7.1-.46,1.93-.92,3.27-2.89,3.27-5.17,0-3.17-2.57-5.74-5.74-5.74C3.27,3.36,1.09,5.07.37,7.41c-1.09,3.16.55,5.68.55,5.68,3.32,4.7,7.8,6.11,11.66,6.11.69,0,1.36-.05,2-.13l-6.83,35.91c-.04.23.23.44.58.45l3.99.09c.28,0,.52-.13.56-.31L23.28.54c.04-.23-.23-.44-.58-.45Z"/>
  </g>
</svg>