<?xml version="1.0" encoding="UTF-8"?>
<svg id="Layer_2" data-name="Layer 2" xmlns="http://www.w3.org/2000/svg" viewBox="0 0 17.61 53.12">
  <defs>
    <style>
      .cls-1 {
        stroke-width: 0px;
      }
    </style>
  </defs>
  <g id="note">
    <path class="cls-1" d="m6.37.37c1.26.81,2.37,1.83,3.28,3.03,0,0,6.56,8.62,6.65,8.73.71.94,1.91,1.85.93,3.12-.46.6-1.15,1.02-1.66,1.6-.46.53-.91,1.07-1.34,1.62-1.02,1.29-2.04,2.65-2.74,4.15-.26.55-.31,1.08-.46,1.65-.33,1.19-.41,2.5-.33,3.72.07,1.11.29,2.24.74,3.26.44.99,1.24,1.83,1.88,2.69.6.79,1.21,1.58,1.81,2.38.44.58.89,1.17,1.33,1.75.33.43,1.07,1.09,1.15,1.64.02.13,0,.26-.03.39-.19.87-.86,1.57-1.73,1.76-.06.01-.12.02-.18,0-.06-.02-.1-.06-.14-.09-1.79-1.58-4.43-2.86-6.88-2.45-.91.15-1.42.99-1.81,1.75-.87,1.68-.66,3.69.01,5.4.73,1.86,1.95,3.6,2.95,5.34.03.06.07.11.07.18.08.61-1.2,1.02-1.62,1.1-.41.09-1.01-.63-1.3-.88-.47-.4-.92-.8-1.37-1.22-.87-.82-1.7-1.69-2.47-2.61-1.39-1.66-2.86-3.59-3.05-5.83-.07-.88-.08-1.89.07-2.77.25-1.47.9-2.87,2.02-3.87.72-.64,1.59-1.1,2.51-1.36.46-.13.94-.22,1.42-.25.7-.05,1.23.05,1.91.21.53.12,1.46.22,1.58-.49.12-.66-.44-1.45-.77-1.96-1.17-1.92-2.44-3.8-3.8-5.59-.53-.7-1.08-1.39-1.68-2.04-.53-.57-1.05-1.19-1.77-1.52-.15-.07-.32-.12-.46-.22-.51-.33-.32-1.26-.2-1.76.15-.6.51-1.08.97-1.47,1.88-1.59,3.65-3.4,5.11-5.37,1.11-1.49,2.65-3.66,1.74-5.6-.96-2.02-2.2-4.07-3.65-5.77-.3-.35-.61-.68-.93-1-.36-.35-.02-1.03.29-1.34.53-.54,1.21-.43,1.83-.09l.12.08Z"/>
  </g>
</svg>