<?xml version="1.0" encoding="UTF-8"?>
<svg id="Layer_2" data-name="Layer 2" xmlns="http://www.w3.org/2000/svg" viewBox="0 0 25.67 66.87">
  <defs>
    <style>
      .cls-1 {
        stroke-width: 0px;
      }
    </style>
  </defs>
  <g id="note">
    <path class="cls-1" d="m25.09.05L21.1,0c-.28,0-.52.16-.56.39l-2.66,15.75c-1.77.45-4.63.81-7.46-.37,1.93-.92,3.27-2.89,3.27-5.18,0-3.17-2.57-5.74-5.74-5.74-2.58,0-4.76,1.7-5.48,4.04-1.09,3.16.55,5.68.55,5.68,3.32,4.7,7.8,6.11,11.66,6.11.86,0,1.68-.07,2.46-.19l-1.96,11.61c-1.78.37-4.34.55-6.87-.51,1.93-.92,3.27-2.89,3.27-5.17,0-3.17-2.57-5.74-5.74-5.74-2.58,0-4.76,1.7-5.48,4.04-1.09,3.16.55,5.68.55,5.68,3.32,4.7,7.8,6.11,11.66,6.11.64,0,1.27-.04,1.87-.11l-5.04,29.86c-.05.28.23.53.58.53l3.99.05c.28,0,.52-.16.56-.39L25.66.59c.05-.28-.23-.53-.58-.53Z"/>
  </g>
</svg>