<?xml version="1.0" encoding="UTF-8"?>
<svg id="Layer_2" data-name="Layer 2" xmlns="http://www.w3.org/2000/svg" viewBox="0 0 52.58 83.76">
  <defs>
    <style>
      .cls-1 {
        stroke-width: 0px;
      }
    </style>
  </defs>
  <g id="note">
    <path class="cls-1" d="m34.13,18.39c-2.85-1.39-4.69-4.07-5.71-7-.42-1.22-.71-2.47-.9-3.75-.08-.57-.12-4.42-.16-5-.03-.47.01-1.03-.15-1.48-.31-.85-2.11-1.35-2.95-1.1-.65.19-.65,1.03-.62,1.57.06.83.06,4.94.06,5.78,0,1.69-.01,3.38-.02,5.07,0,2.21-.02,4.42-.02,6.63,0,2.55-.02,5.09-.03,7.64,0,2.7-.02,5.4-.03,8.1,0,2.67-.02,5.33-.03,8,0,2.45-.02,4.9-.03,7.35,0,2.05-.01,4.1-.02,6.15,0,1.47-.01,2.93-.01,4.4,0,.7,0,1.4,0,2.1,0,0,0,.1,0,.1-3.59-1.78-9.07-1.46-14.24,1.23-7.18,3.73-11,10.59-8.55,15.31,2.46,4.72,8.66,5.76,15.84,2.02,5.99-3.11,9.92-8.42,9.89-12.81V25.62c8.76-.27,16.88,10.33,16.88,10.33,8.18,14.4-5.08,28.74-5.08,28.74-.88,2.72.92,2.15.92,2.15,4.69-2.83,10.14-11.74,10.14-11.74,12.54-20.95-15.2-36.71-15.2-36.71Z"/>
  </g>
</svg>