<?xml version="1.0" encoding="UTF-8"?>
<svg id="Layer_2" data-name="Layer 2" xmlns="http://www.w3.org/2000/svg" viewBox="0 0 40.21 83.76">
  <defs>
    <style>
      .cls-1 {
        stroke-width: 0px;
      }
    </style>
  </defs>
  <g id="note">
    <g>
      <path class="cls-1" d="m27.89,0h-2.56c-.29,0-.53.24-.53.53l-.03,61.18c-.33-.22-.64-.41-.91-.52-3.92-1.83-9.44-1.36-14.41,1.23-7.56,3.93-11.32,11.19-8.55,16.52,1.4,2.69,4.19,4.38,7.86,4.75.51.05,1.03.08,1.55.08,2.93,0,6.08-.81,9.02-2.34,5.85-3.04,8.67-8.21,8.52-13.01l.04-.03L28.42.53c0-.29-.24-.53-.53-.53Zm-10.46,77.75c-2.76,1.43-5.69,2.08-8.24,1.82-1.3-.13-3.62-.64-4.6-2.54-1.64-3.16,1.46-8.16,6.78-10.93,2.36-1.23,4.88-1.87,7.11-1.87,1.36,0,2.61.24,3.65.73h.03c.08.05,1.83.91,2.46,3.46.18,3.16-2.82,7.06-7.19,9.33Z"/>
      <path class="cls-1" d="m40.21,71.56c0,1.73-1.4,3.12-3.12,3.12s-3.12-1.4-3.12-3.12,1.4-3.12,3.12-3.12,3.12,1.4,3.12,3.12Z"/>
    </g>
  </g>
</svg>