<?xml version="1.0" encoding="UTF-8"?>
<svg id="Layer_2" data-name="Layer 2" xmlns="http://www.w3.org/2000/svg" viewBox="0 0 53.34 83.72">
  <defs>
    <style>
      .cls-1 {
        stroke-width: 0px;
      }
    </style>
  </defs>
  <g id="note">
    <path class="cls-1" d="m52.54,39.17c-.16-.51-.35-1.02-.56-1.52,1.79-4.71.8-8.47.8-8.47-2.38-7.44-9.28-13.61-15.91-17.73-5.45-3.38-7.91-4.26-9.53-9.41-.05-.38-.12-.76-.25-1.11-.03-.07-.08-.14-.12-.2,0,0,0-.02,0-.03,0,0,0,0,0,.01-.49-.67-1.94-.85-2.71-.63-.65.19-.62.96-.62,1.57,0,.13,0,.27,0,.41l-.13,60.81c-3.59-1.78-9.07-1.29-14.24,1.39-7.18,3.73-11,10.59-8.55,15.31,2.46,4.72,10.26,5.53,17.44,1.79,5.99-3.11,8.32-8.26,8.29-12.65V22.81c1.69,1,1.86,1.19,4.51,2.41,9.48,4.34,20.55,15.96,16.69,26.44-.51,1.39-2.1,4.02-2.79,5.33-1.58,2.98,2.5,2.17,4.13-.23,3.64-5.36,5.48-11.49,3.53-17.59Zm-15.91-17.73c-3.26-2.02-6.59-4.49-9.19-7.27.84.42,1.82.42,3.78,1.06,9.91,3.25,16.54,7.39,18.04,17.32,0,0,0,.09.01.26-3.26-4.61-8.01-8.49-12.65-11.37Z"/>
  </g>
</svg>