<?xml version="1.0" encoding="UTF-8"?>
<svg id="Layer_2" data-name="Layer 2" xmlns="http://www.w3.org/2000/svg" viewBox="0 0 44.93 24.03">
  <defs>
    <style>
      .cls-1 {
        stroke-width: 0px;
      }
    </style>
  </defs>
  <g id="note">
    <g>
      <path class="cls-1" d="m16.67,24.03C7.32,24.03,0,18.75,0,12.02S7.32,0,16.67,0s16.67,5.28,16.67,12.02-7.32,12.02-16.67,12.02Zm0-19.89c-6.79,0-12.52,3.6-12.52,7.87s5.74,7.87,12.52,7.87,12.52-3.6,12.52-7.87-5.74-7.87-12.52-7.87Z"/>
      <path class="cls-1" d="m38.68,12.02c0-1.73,1.4-3.12,3.12-3.12s3.12,1.4,3.12,3.12-1.4,3.12-3.12,3.12-3.12-1.4-3.12-3.12Z"/>
    </g>
  </g>
</svg>