<?xml version="1.0" encoding="UTF-8"?>
<svg id="Layer_2" data-name="Layer 2" xmlns="http://www.w3.org/2000/svg" viewBox="0 0 150 150">
  <defs>
    <style>
      .cls-1 {
        stroke-width: 0px;
      }
    </style>
  </defs>
  <g id="Invisible">
    <g id="note">
      <path class="cls-1" d="m81.91,56.84l-3-.07c-.21,0-.39.1-.42.23l-2.06,10.86c-1.34.3-3.35.49-5.35-.35,1.45-.69,2.46-2.18,2.46-3.89,0-2.39-1.94-4.32-4.32-4.32-1.94,0-3.58,1.29-4.12,3.05-.82,2.38.41,4.28.41,4.28,2.5,3.54,5.87,4.6,8.78,4.6.52,0,1.02-.04,1.51-.1l-5.14,27.04c-.03.17.17.33.44.34l3,.07c.21,0,.39-.1.42-.23l7.83-41.16c.03-.17-.17-.33-.44-.34Z"/>
    </g>
  </g>
</svg>