<?xml version="1.0" encoding="UTF-8"?>
<svg id="Layer_2" data-name="Layer 2" xmlns="http://www.w3.org/2000/svg" viewBox="0 0 150 150">
  <defs>
    <style>
      .cls-1 {
        stroke-width: 0px;
      }
    </style>
  </defs>
  <g id="Invisible">
    <g id="note">
      <path class="cls-1" d="m72.3,46.11c1.39.89,2.62,2.02,3.62,3.34,0,0,7.24,9.51,7.34,9.63.78,1.04,2.11,2.04,1.03,3.44-.51.66-1.27,1.13-1.83,1.77-.51.58-1,1.18-1.48,1.79-1.13,1.42-2.25,2.92-3.02,4.58-.29.61-.34,1.19-.51,1.82-.36,1.31-.45,2.76-.36,4.11.08,1.22.32,2.47.82,3.6.49,1.09,1.37,2.02,2.07,2.97.66.87,1.34,1.74,2,2.63.49.64.98,1.29,1.47,1.93.36.47,1.18,1.2,1.27,1.81.02.14,0,.29-.03.43-.21.96-.95,1.73-1.91,1.94-.07.01-.13.02-.2,0s-.11-.07-.15-.1c-1.98-1.74-4.89-3.16-7.59-2.7-1,.17-1.57,1.09-2,1.93-.96,1.85-.73,4.07.01,5.96.81,2.05,2.15,3.97,3.26,5.89.03.07.08.12.08.2.09.67-1.32,1.13-1.79,1.21-.45.1-1.11-.7-1.43-.97-.52-.44-1.02-.88-1.51-1.35-.96-.9-1.88-1.87-2.73-2.88-1.53-1.83-3.16-3.96-3.37-6.43-.08-.97-.09-2.09.08-3.06.28-1.62.99-3.17,2.23-4.27.79-.71,1.75-1.21,2.77-1.5.51-.14,1.04-.24,1.57-.28.77-.06,1.36.06,2.11.23.58.13,1.61.24,1.74-.54.13-.73-.49-1.6-.85-2.16-1.29-2.12-2.69-4.19-4.19-6.17-.58-.77-1.19-1.53-1.85-2.25-.58-.63-1.16-1.31-1.95-1.68-.17-.08-.35-.13-.51-.24-.56-.36-.35-1.39-.22-1.94.17-.66.56-1.19,1.07-1.62,2.07-1.75,4.03-3.75,5.64-5.93,1.22-1.64,2.92-4.04,1.92-6.18-1.06-2.23-2.43-4.49-4.03-6.37-.33-.39-.67-.75-1.03-1.1-.4-.39-.02-1.14.32-1.48.58-.6,1.34-.47,2.02-.1,0,0,.13.09.13.09Z"/>
    </g>
  </g>
</svg>