<?xml version="1.0" encoding="UTF-8"?>
<svg id="Layer_2" data-name="Layer 2" xmlns="http://www.w3.org/2000/svg" viewBox="0 0 150 150">
  <defs>
    <style>
      .cls-1 {
        stroke-width: 0px;
      }
    </style>
  </defs>
  <g id="Invisible">
    <g id="note">
      <path class="cls-1" d="m82.47,56.81l-2.89-.04c-.2,0-.38.12-.41.28l-1.93,11.41c-1.28.33-3.35.59-5.4-.27,1.4-.67,2.37-2.09,2.37-3.75,0-2.3-1.86-4.16-4.16-4.16-1.87,0-3.45,1.23-3.97,2.93-.79,2.29.4,4.11.4,4.11,2.4,3.4,5.65,4.43,8.45,4.43.62,0,1.22-.05,1.78-.14l-1.42,8.41c-1.29.27-3.14.4-4.98-.37,1.4-.67,2.37-2.09,2.37-3.74,0-2.3-1.86-4.16-4.16-4.16-1.87,0-3.45,1.23-3.97,2.93-.79,2.29.4,4.11.4,4.11,2.4,3.4,5.65,4.43,8.45,4.43.46,0,.92-.03,1.35-.08l-3.65,21.63c-.04.2.17.38.42.38l2.89.04c.2,0,.38-.12.41-.28l8.06-47.7c.04-.2-.17-.38-.42-.38h0Z"/>
    </g>
  </g>
</svg>