<?xml version="1.0" encoding="UTF-8" standalone="yes"?>
<!DOCTYPE svg PUBLIC "-//W3C//DTD SVG 1.1//EN" "http://www.w3.org/Graphics/SVG/1.1/DTD/svg11.dtd">

<svg width="500" height="500" viewBox="0 0 500 500" xmlns="http://www.w3.org/2000/svg" xmlns:xlink="http://www.w3.org/1999/xlink" version="1.1" baseProfile="full">
    <g transform="scale(1.000000,-1.000000) translate(0,-500)">
        <path d="M 1.000000 32.544479 L 1.000000 469.435521 L 1.566811 475.867640 L 3.267250 481.757575 L 6.101323 487.105343 L 10.069038 491.910962 L 14.874646 495.878684 L 20.222408 498.712756 L 26.112345 500.413191 L 32.544479 500.980000 L 73.552303 500.980000 L 162.665457 411.866845 L 90.113155 411.866845 L 90.113155 90.113155 L 411.866845 90.113155 L 411.866845 162.665457 L 500.980000 73.552303 L 500.980000 32.544479 L 500.413191 26.112345 L 498.712756 20.222408 L 495.878684 14.874646 L 491.910962 10.069038 L 487.105343 6.101323 L 481.757575 3.267250 L 475.867640 1.566811 L 469.435521 1.000000 L 32.544479 1.000000 L 26.112345 1.566811 L 20.222408 3.267250 L 14.874646 6.101323 L 10.069038 10.069038 L 6.101323 14.874646 L 3.267250 20.222408 L 1.566811 26.112345 L 1.000000 32.544479 Z M 207.616341 162.665457 L 197.783309 174.470005 L 190.759736 187.408143 L 186.545605 201.479919 L 185.140899 216.685379 L 186.397741 231.151516 L 190.168277 244.582539 L 196.452526 256.978504 L 205.250505 268.339464 L 348.777886 411.866845 L 277.802808 411.866845 L 268.709104 412.680093 L 260.354756 415.119847 L 252.739737 419.186124 L 245.864022 424.878943 L 240.171216 431.730030 L 236.104937 439.271120 L 233.665176 447.502241 L 232.851924 456.423423 L 233.665176 465.344604 L 236.104937 473.575726 L 240.171216 481.116815 L 245.864022 487.967902 L 252.739737 493.660721 L 260.354756 497.726999 L 268.709104 500.166753 L 277.802808 500.980000 L 444.988549 500.980000 L 456.029143 499.944955 L 466.281080 496.839810 L 475.744402 491.664547 L 484.419148 484.419148 L 491.664547 475.744402 L 496.839810 466.281080 L 499.944955 456.029143 L 500.980000 444.988549 L 500.980000 277.802808 L 500.166753 269.029485 L 497.726999 260.847650 L 493.660721 253.257274 L 487.967902 246.258328 L 481.116815 240.393005 L 473.575726 236.203506 L 465.344604 233.689817 L 456.423423 232.851924 L 447.502241 233.689817 L 439.271120 236.203506 L 431.730030 240.393005 L 424.878943 246.258328 L 419.186124 253.257274 L 415.119847 260.847650 L 412.680093 269.029485 L 411.866845 277.802808 L 411.866845 348.777886 L 216.291073 153.990726 L 207.616341 162.665457 Z" transform="scale(1.000000,1.000000) translate(-0.990000,-0.990000)" opacity="1.000000"></path>
    </g>
</svg>